<svg width="32" height="32" viewBox="0 0 32 32" fill="none" xmlns="http://www.w3.org/2000/svg">
<rect width="32" height="32" rx="16" fill="#E9E5D3" fill-opacity="0.05"/>
<rect x="0.25" y="0.25" width="31.5" height="31.5" rx="15.75" stroke="#E9E5D3" stroke-opacity="0.25" stroke-width="0.5"/>
<path d="M15.9997 16.6667C16.3679 16.6667 16.6663 16.3683 16.6663 16.0001C16.6663 15.6319 16.3679 15.3334 15.9997 15.3334C15.6315 15.3334 15.333 15.6319 15.333 16.0001C15.333 16.3683 15.6315 16.6667 15.9997 16.6667Z" stroke="#E9E5D3" stroke-opacity="0.9" stroke-width="1.25" stroke-linecap="round" stroke-linejoin="round"/>
<path d="M15.9997 12.0001C16.3679 12.0001 16.6663 11.7016 16.6663 11.3334C16.6663 10.9652 16.3679 10.6667 15.9997 10.6667C15.6315 10.6667 15.333 10.9652 15.333 11.3334C15.333 11.7016 15.6315 12.0001 15.9997 12.0001Z" stroke="#E9E5D3" stroke-opacity="0.9" stroke-width="1.25" stroke-linecap="round" stroke-linejoin="round"/>
<path d="M15.9997 21.3334C16.3679 21.3334 16.6663 21.0349 16.6663 20.6667C16.6663 20.2986 16.3679 20.0001 15.9997 20.0001C15.6315 20.0001 15.333 20.2986 15.333 20.6667C15.333 21.0349 15.6315 21.3334 15.9997 21.3334Z" stroke="#E9E5D3" stroke-opacity="0.9" stroke-width="1.25" stroke-linecap="round" stroke-linejoin="round"/>
</svg>
