<svg width="32" height="32" viewBox="0 0 32 32" fill="none" xmlns="http://www.w3.org/2000/svg">
<rect width="32" height="32" rx="16" fill="#E9E5D3" fill-opacity="0.05"/>
<rect x="0.25" y="0.25" width="31.5" height="31.5" rx="15.75" stroke="#E9E5D3" stroke-opacity="0.25" stroke-width="0.5"/>
<path d="M15.9997 18.3333H12.9997C12.0693 18.3333 11.6041 18.3333 11.2256 18.4482C10.3733 18.7067 9.70637 19.3736 9.44783 20.2259C9.33301 20.6044 9.33301 21.0696 9.33301 22M20.6663 22V18M18.6663 20H22.6663M17.6663 13C17.6663 14.6569 16.3232 16 14.6663 16C13.0095 16 11.6663 14.6569 11.6663 13C11.6663 11.3431 13.0095 10 14.6663 10C16.3232 10 17.6663 11.3431 17.6663 13Z" stroke="#E7E5E4" stroke-width="1.25" stroke-linecap="round" stroke-linejoin="round"/>
</svg>
