<svg width="24" height="25" viewBox="0 0 24 25" fill="none" xmlns="http://www.w3.org/2000/svg">
<path fill-rule="evenodd" clip-rule="evenodd" d="M4.2216 4.71574C4.61213 4.32522 5.24529 4.32522 5.63582 4.71574L11.9998 11.0797L18.3637 4.71574C18.7543 4.32522 19.3874 4.32522 19.778 4.71574C20.1685 5.10627 20.1685 5.73943 19.778 6.12996L13.414 12.4939L19.778 18.8579C20.1685 19.2484 20.1685 19.8816 19.778 20.2721C19.3874 20.6626 18.7543 20.6626 18.3637 20.2721L11.9998 13.9081L5.63582 20.2721C5.24529 20.6626 4.61213 20.6626 4.2216 20.2721C3.83108 19.8816 3.83108 19.2484 4.2216 18.8579L10.5856 12.4939L4.2216 6.12996C3.83108 5.73943 3.83108 5.10627 4.2216 4.71574Z" fill="#5F6369"/>
</svg>
