<svg width="48" height="48" viewBox="0 0 48 48" fill="none" xmlns="http://www.w3.org/2000/svg">
<path fill-rule="evenodd" clip-rule="evenodd" d="M17.7 10.5H30.3C32.8202 10.5 34.0804 10.5 35.043 10.9905C35.8897 11.4219 36.5781 12.1103 37.0095 12.957C37.5 13.9196 37.5 15.1798 37.5 17.7V25.8C37.5 28.3202 37.5 29.5804 37.0095 30.543C36.5781 31.3897 35.8897 32.0781 35.043 32.5095C34.0804 33 32.8202 33 30.3 33H26.5256C25.5895 33 25.1215 33 24.6738 33.0919C24.2766 33.1734 23.8923 33.3082 23.5312 33.4927C23.1243 33.7006 22.7588 33.993 22.0278 34.5777L18.4496 37.4403C17.8255 37.9396 17.5134 38.1892 17.2508 38.1895C17.0224 38.1898 16.8063 38.0859 16.6638 37.9074C16.5 37.7022 16.5 37.3025 16.5 36.5033V33C15.105 33 14.4076 33 13.8353 32.8467C12.2824 32.4306 11.0694 31.2176 10.6533 29.6647C10.5 29.0924 10.5 28.395 10.5 27V17.7C10.5 15.1798 10.5 13.9196 10.9905 12.957C11.4219 12.1103 12.1103 11.4219 12.957 10.9905C13.9196 10.5 15.1798 10.5 17.7 10.5Z" fill="#9FFF02" stroke="#9FFF02" stroke-linecap="round" stroke-linejoin="round"/>
<path d="M23.9954 17.5489C22.6458 15.9906 20.3953 15.5714 18.7044 16.9983C17.0135 18.4253 16.7755 20.811 18.1033 22.4986C18.926 23.5441 20.9908 25.4537 22.4429 26.7554C22.9763 27.2336 23.243 27.4727 23.5631 27.569C23.8377 27.6516 24.1531 27.6516 24.4277 27.569C24.7477 27.4727 25.0144 27.2336 25.5478 26.7554C26.9999 25.4537 29.0648 23.5441 29.8874 22.4986C31.2153 20.811 31.0063 18.4102 29.2863 16.9983C27.5664 15.5864 25.3449 15.9906 23.9954 17.5489Z" fill="black"/>
</svg>
