<svg width="20" height="21" viewBox="0 0 20 21" fill="none" xmlns="http://www.w3.org/2000/svg">
<mask id="mask0_8864_4881" style="mask-type:luminance" maskUnits="userSpaceOnUse" x="0" y="0" width="20" height="21">
<path d="M20 0.989258H0V20.9893H20V0.989258Z" fill="white"/>
</mask>
<g mask="url(#mask0_8864_4881)">
<path fill-rule="evenodd" clip-rule="evenodd" d="M14.2635 4.27579C14.6702 3.86902 15.3297 3.86901 15.7365 4.27575L16.7128 5.25182C17.1196 5.65861 17.1196 6.3182 16.7128 6.72501L16.25 7.18782L13.8007 4.73853L14.2635 4.27579ZM12.9168 5.6224L15.3661 8.0717L6.875 16.5628L4.42557 14.1134L12.9168 5.6224ZM3.78663 15.2422L3.29673 17.6916L5.74617 17.2018L3.78663 15.2422ZM2.89142 13.8797L12.4631 4.30834L12.4747 4.29643L12.4866 4.28483L12.4866 4.28482L13.3796 3.39189C14.2745 2.49701 15.7254 2.49697 16.6204 3.39181L17.5966 4.36788C18.4916 5.26281 18.4917 6.7139 17.5967 7.6089L16.6919 8.51364L7.10861 18.097C7.02136 18.1842 6.91024 18.2437 6.78925 18.2679L2.62258 19.1012C2.41767 19.1422 2.20583 19.0781 2.05807 18.9303C1.9103 18.7825 1.84616 18.5707 1.88715 18.3658L2.72049 14.1991C2.74469 14.0781 2.80416 13.967 2.89142 13.8797Z" fill="white"/>
</g>
</svg>
