<svg width="48" height="48" viewBox="0 0 48 48" fill="none" xmlns="http://www.w3.org/2000/svg">
<circle cx="24" cy="24" r="15" fill="#F093FB" stroke="#F093FB"/>
<path d="M27.0763 26.2332C26.5262 25.5291 26.7252 24.5083 27.2413 23.7788C27.8693 22.8914 28.1732 21.772 28.01 20.6104C27.6701 18.1924 25.4345 16.5077 23.0164 16.8475C20.5984 17.1874 18.9137 19.423 19.2535 21.8411C19.4136 22.9798 19.9941 23.956 20.8162 24.6346C21.4944 25.1945 21.9475 26.1065 21.6181 26.922L20.7398 29.0958C20.2992 30.1863 21.2043 31.3447 22.3689 31.1811L27.4734 30.4637C28.638 30.3 29.1887 28.9369 28.4646 28.0102L27.0763 26.2332Z" fill="#02142B"/>
<circle cx="24" cy="24" r="11.25" stroke="#02142B"/>
</svg>
