<svg width="10" height="11" viewBox="0 0 10 11" fill="none" xmlns="http://www.w3.org/2000/svg">
<g clip-path="url(#clip0_8989_20430)">
<path d="M2.08301 2.14154C2.08301 1.73689 2.08301 1.53457 2.16738 1.42304C2.24088 1.32588 2.35323 1.26575 2.47484 1.25849C2.61444 1.25015 2.78278 1.36238 3.11947 1.58684L7.50096 4.50783C7.77916 4.6933 7.91826 4.78604 7.96673 4.90292C8.00911 5.00511 8.00911 5.11996 7.96673 5.22215C7.91826 5.33903 7.77916 5.43176 7.50096 5.61723L3.11947 8.53822C2.78278 8.76268 2.61444 8.87491 2.47484 8.86658C2.35323 8.85932 2.24088 8.79919 2.16738 8.70203C2.08301 8.5905 2.08301 8.38817 2.08301 7.98352V2.14154Z" fill="white" stroke="white" stroke-linecap="round" stroke-linejoin="round"/>
</g>
<defs>
<clipPath id="clip0_8989_20430">
<rect width="10" height="10" fill="white" transform="translate(0 0.0625)"/>
</clipPath>
</defs>
</svg>
