<svg width="20" height="21" viewBox="0 0 20 21" fill="none" xmlns="http://www.w3.org/2000/svg">
<path d="M11.1232 2.60079C14.2966 2.98017 16.984 5.30691 18.0212 8.36811C19.3873 12.3992 17.397 16.7967 13.6032 18.6132C11.2746 19.7271 8.85443 19.7202 6.34268 18.5927C6.17323 18.5167 6.00317 18.5054 5.83248 18.559C4.90428 18.8456 3.94555 19.1184 2.9563 19.3776C2.02 19.6224 1.35281 18.8973 1.60511 17.9815C1.85678 17.067 2.10659 16.1669 2.35452 15.281C2.44797 14.9465 2.39564 14.6344 2.25921 14.3111C-0.345984 8.17935 4.56539 1.81774 11.1232 2.60079ZM17.0232 9.53054C15.7823 3.57821 8.16295 1.78036 4.36729 6.49924C2.77502 8.47837 2.38256 11.1135 3.23102 13.4346C3.37679 13.8345 3.54499 14.2413 3.73561 14.655C3.77299 14.7347 3.77984 14.8169 3.75617 14.9017L2.93387 17.8694C2.90522 17.9765 2.94508 18.0183 3.05348 17.9946C3.96922 17.7903 4.86752 17.5492 5.74838 17.2714C5.98572 17.1966 6.28661 17.1779 6.51274 17.2901C8.95161 18.4955 11.626 18.4805 13.9022 16.9985C16.3822 15.3857 17.6306 12.4497 17.0232 9.53054Z" fill="#3300FF"/>
<path d="M7.85648 10.9829C7.85648 11.204 7.76866 11.416 7.61235 11.5723C7.45604 11.7286 7.24403 11.8164 7.02297 11.8164C6.8019 11.8164 6.5899 11.7286 6.43358 11.5723C6.27727 11.416 6.18945 11.204 6.18945 10.9829C6.18945 10.7619 6.27727 10.5499 6.43358 10.3935C6.5899 10.2372 6.8019 10.1494 7.02297 10.1494C7.24403 10.1494 7.45604 10.2372 7.61235 10.3935C7.76866 10.5499 7.85648 10.7619 7.85648 10.9829Z" fill="#FB5BA2"/>
<path d="M9.92147 11.8177C9.70789 11.8024 9.50937 11.6997 9.36958 11.5323C9.22979 11.3649 9.16018 11.1464 9.17605 10.9249C9.19193 10.7034 9.292 10.4971 9.45424 10.3513C9.61649 10.2055 9.82761 10.1322 10.0412 10.1475C10.2548 10.1628 10.4533 10.2655 10.5931 10.4329C10.7329 10.6004 10.8025 10.8188 10.7866 11.0403C10.7707 11.2618 10.6707 11.4681 10.5084 11.6139C10.3462 11.7597 10.135 11.833 9.92147 11.8177Z" fill="#FB5BA2"/>
<path d="M13.7716 10.9825C13.7716 11.0904 13.7503 11.1974 13.709 11.2971C13.6676 11.3969 13.6071 11.4876 13.5307 11.5639C13.4543 11.6403 13.3637 11.7008 13.2639 11.7422C13.1642 11.7835 13.0572 11.8048 12.9493 11.8048C12.8413 11.8048 12.7343 11.7835 12.6346 11.7422C12.5348 11.7008 12.4442 11.6403 12.3678 11.5639C12.2914 11.4876 12.2309 11.3969 12.1895 11.2971C12.1482 11.1974 12.127 11.0904 12.127 10.9825C12.127 10.7644 12.2136 10.5552 12.3678 10.401C12.522 10.2468 12.7312 10.1602 12.9493 10.1602C13.1673 10.1602 13.3765 10.2468 13.5307 10.401C13.6849 10.5552 13.7716 10.7644 13.7716 10.9825Z" fill="#FB5BA2"/>
</svg>
