<svg width="48" height="48" viewBox="0 0 48 48" fill="none" xmlns="http://www.w3.org/2000/svg">
<path d="M39 19.3971C39 18.4883 39 18.034 38.8203 17.8236C38.6644 17.641 38.4305 17.5441 38.1912 17.563C37.9153 17.5847 37.594 17.906 36.9515 18.5485L31.5 24L36.9515 29.4515C37.594 30.094 37.9153 30.4153 38.1912 30.437C38.4305 30.4559 38.6644 30.359 38.8203 30.1764C39 29.966 39 29.5117 39 28.6029V19.3971Z" fill="#9FFF02"/>
<path d="M9 20.7C9 18.1798 9 16.9196 9.49047 15.957C9.9219 15.1103 10.6103 14.4219 11.457 13.9905C12.4196 13.5 13.6798 13.5 16.2 13.5H24.3C26.8202 13.5 28.0804 13.5 29.043 13.9905C29.8897 14.4219 30.5781 15.1103 31.0095 15.957C31.5 16.9196 31.5 18.1798 31.5 20.7V27.3C31.5 29.8202 31.5 31.0804 31.0095 32.043C30.5781 32.8897 29.8897 33.5781 29.043 34.0095C28.0804 34.5 26.8202 34.5 24.3 34.5H16.2C13.6798 34.5 12.4196 34.5 11.457 34.0095C10.6103 33.5781 9.9219 32.8897 9.49047 32.043C9 31.0804 9 29.8202 9 27.3V20.7Z" fill="#9FFF02"/>
<path d="M39 19.3971C39 18.4883 39 18.034 38.8203 17.8236C38.6644 17.641 38.4305 17.5441 38.1912 17.563C37.9153 17.5847 37.594 17.906 36.9515 18.5485L31.5 24L36.9515 29.4515C37.594 30.094 37.9153 30.4153 38.1912 30.437C38.4305 30.4559 38.6644 30.359 38.8203 30.1764C39 29.966 39 29.5117 39 28.6029V19.3971Z" stroke="#9FFF02" stroke-linecap="round" stroke-linejoin="round"/>
<path d="M9 20.7C9 18.1798 9 16.9196 9.49047 15.957C9.9219 15.1103 10.6103 14.4219 11.457 13.9905C12.4196 13.5 13.6798 13.5 16.2 13.5H24.3C26.8202 13.5 28.0804 13.5 29.043 13.9905C29.8897 14.4219 30.5781 15.1103 31.0095 15.957C31.5 16.9196 31.5 18.1798 31.5 20.7V27.3C31.5 29.8202 31.5 31.0804 31.0095 32.043C30.5781 32.8897 29.8897 33.5781 29.043 34.0095C28.0804 34.5 26.8202 34.5 24.3 34.5H16.2C13.6798 34.5 12.4196 34.5 11.457 34.0095C10.6103 33.5781 9.9219 32.8897 9.49047 32.043C9 31.0804 9 29.8202 9 27.3V20.7Z" stroke="#9FFF02" stroke-linecap="round" stroke-linejoin="round"/>
</svg>
