<svg width="43" height="43" viewBox="0 0 43 43" fill="none" xmlns="http://www.w3.org/2000/svg">
<rect width="42.9888" height="42.9888" rx="21.4944" fill="#6C69FF" fill-opacity="0.05"/>
<path d="M22.5356 14.585C23.164 14.3891 23.6905 14.0526 24.1152 13.5755C24.6243 13.0053 25.2963 12.8715 26.0294 12.8715C28.6942 12.8677 31.2357 13.3884 33.6542 14.4337C33.6994 14.4527 33.7397 14.4817 33.772 14.5186C33.8043 14.5554 33.8276 14.599 33.8403 14.6461C33.9354 14.9971 33.9625 15.3578 33.9218 15.7282C33.755 17.2216 33.5194 18.7411 33.2149 20.2868C33.1509 20.6126 32.9531 20.7784 32.6214 20.7842L30.2651 20.8279C30.1371 20.8298 30.0731 20.8948 30.0731 21.0228L30.0672 32.1724C30.0674 32.2623 30.0368 32.3497 29.9803 32.4205C29.9238 32.4913 29.8447 32.5412 29.756 32.5622C29.4903 32.6242 29.2052 32.6553 28.9007 32.6553C23.7865 32.6495 18.6374 32.6436 13.4534 32.6378C13.2285 32.6378 13.0849 32.5292 13.0229 32.312C12.9802 32.1627 12.9579 32.0143 12.956 31.8669C12.9405 28.1685 12.9395 25.4592 12.9531 21.0722C12.9531 20.919 12.8765 20.8405 12.7232 20.8366L9.95088 20.7639C9.83064 20.76 9.76179 20.698 9.74434 20.5777C9.52325 19.034 9.31088 17.5833 9.10725 16.2257C9.03937 15.7758 9.02967 15.3151 9.07815 14.8439C9.1247 14.3639 9.4127 14.3726 9.76179 14.2301C11.93 13.3457 14.3116 12.8996 16.9065 12.8919C17.6774 12.889 18.4745 13.0315 19.0011 13.6657C19.3579 14.0963 19.7914 14.3978 20.3014 14.5704C20.3323 14.5809 20.3654 14.5832 20.3974 14.5771C20.4295 14.571 20.4594 14.5567 20.4843 14.5356C20.5092 14.5145 20.5282 14.4874 20.5395 14.4568C20.5508 14.4262 20.5539 14.3932 20.5487 14.361C20.2869 12.6475 21.1567 11.7253 22.012 10.4279C22.059 10.3575 22.0862 10.2757 22.0908 10.1911C22.0953 10.1066 22.0769 10.0223 22.0376 9.94732C21.9983 9.8723 21.9396 9.80926 21.8675 9.76482C21.7954 9.72038 21.7126 9.6962 21.628 9.69479C21.5407 9.69285 21.4495 9.70546 21.3545 9.73261C21.2226 9.7714 21.1218 9.84896 21.052 9.96532L20.444 10.9835C20.3809 11.0896 20.2879 11.1746 20.1766 11.228C20.0653 11.2813 19.9407 11.3005 19.8185 11.2831C18.8527 11.1435 18.812 9.97405 19.1174 9.27587C19.9232 7.42568 22.3203 7.11443 23.5712 8.63879C24.2636 9.47952 24.3043 10.9166 23.5451 11.7864C22.8702 12.5631 22.3814 13.3952 22.3582 14.4541C22.3581 14.4755 22.3631 14.4967 22.3727 14.5159C22.3824 14.5351 22.3964 14.5517 22.4137 14.5645C22.431 14.5772 22.451 14.5857 22.4722 14.5893C22.4934 14.5929 22.5151 14.5914 22.5356 14.585ZM28.3509 19.0039C29.1926 18.8158 30.0818 18.7576 31.0185 18.8293C31.3482 18.8526 31.5441 18.7023 31.6062 18.3784C31.7594 17.5639 31.8292 16.7619 31.8156 15.9726C31.815 15.9233 31.7989 15.8755 31.7697 15.8359C31.7405 15.7962 31.6996 15.7667 31.6527 15.7515C29.8355 15.1581 27.996 14.8691 26.1342 14.8846C25.2818 14.8933 24.6883 15.8999 23.9291 16.249C21.692 17.2817 19.6294 16.9093 17.8258 15.3471C16.5865 14.2737 12.6942 15.2977 11.3123 15.7719C11.2526 15.7924 11.2015 15.8328 11.1672 15.8866C11.1329 15.9403 11.1175 16.0045 11.1232 16.0686L11.3356 18.2824C11.3725 18.6703 11.5858 18.8526 11.9756 18.8293C12.9104 18.7712 13.7502 18.8051 14.4949 18.9312C14.5977 18.9486 14.6685 19.0048 14.7072 19.0999C14.8255 19.3985 14.8857 19.7166 14.8876 20.0541C14.9031 24.0744 14.9089 26.6751 14.9051 30.5229C14.9051 30.6063 14.9458 30.648 15.0272 30.648H27.8912C27.9399 30.648 27.9865 30.6287 28.0208 30.5943C28.0552 30.5599 28.0745 30.5133 28.0745 30.4647C28.0726 26.9059 28.0716 24.7901 28.0716 21.4504C28.0735 20.7018 28.1094 19.9513 28.1792 19.1988C28.1889 19.0921 28.2462 19.0272 28.3509 19.0039ZM13.4663 32.4649C13.5027 32.4499 13.5292 32.4152 13.5399 32.3682C13.5507 32.3213 13.5448 32.2661 13.5237 32.2148C13.5132 32.1893 13.4993 32.1656 13.4827 32.1449C13.4661 32.1243 13.4472 32.1071 13.4271 32.0944C13.4069 32.0816 13.3859 32.0736 13.3653 32.0707C13.3446 32.0679 13.3247 32.0702 13.3067 32.0776C13.2703 32.0926 13.2438 32.1274 13.2331 32.1743C13.2223 32.2212 13.2282 32.2764 13.2494 32.3278C13.2598 32.3532 13.2738 32.377 13.2903 32.3976C13.3069 32.4183 13.3258 32.4354 13.346 32.4482C13.3661 32.4609 13.3871 32.469 13.4078 32.4718C13.4284 32.4747 13.4483 32.4724 13.4663 32.4649ZM29.8723 32.1578C29.7094 32.0104 29.5746 32.0492 29.468 32.2742C29.4571 32.2979 29.454 32.3244 29.4589 32.35C29.4639 32.3756 29.4767 32.399 29.4956 32.4169C29.5145 32.4349 29.5386 32.4464 29.5644 32.4501C29.5902 32.4537 29.6165 32.4492 29.6396 32.4371L29.8491 32.3266C29.8641 32.3187 29.8771 32.3073 29.8869 32.2935C29.8967 32.2796 29.903 32.2637 29.9053 32.247C29.9076 32.2304 29.9058 32.2137 29.9 32.1981C29.8943 32.1826 29.8848 32.1687 29.8723 32.1578Z" fill="#6C69FF"/>
</svg>
